<svg width="120" height="16" viewBox="0 0 120 16" fill="none" xmlns="http://www.w3.org/2000/svg">
<path d="M0 2.82966V0.62085H11.6051V2.82966H7.10938V15.1663H4.49574V2.82966H0Z" fill="white"/>
<path d="M16.9762 15.3794C15.8825 15.3794 14.9379 15.1521 14.1424 14.6976C13.3517 14.2383 12.7433 13.5896 12.3171 12.7515C11.891 11.9087 11.6779 10.9168 11.6779 9.77568C11.6779 8.65352 11.891 7.66867 12.3171 6.82113C12.748 5.96886 13.3493 5.30598 14.1211 4.8325C14.8929 4.35428 15.7996 4.11517 16.8413 4.11517C17.5136 4.11517 18.1481 4.22407 18.7447 4.44187C19.346 4.65494 19.8763 4.98638 20.3356 5.43619C20.7996 5.886 21.1642 6.45892 21.4293 7.15494C21.6945 7.84623 21.8271 8.67009 21.8271 9.62653V10.4149H12.8853V8.68193H19.3626C19.3578 8.18951 19.2513 7.75153 19.043 7.36801C18.8346 6.97975 18.5434 6.67435 18.1694 6.45182C17.8001 6.22928 17.3692 6.11801 16.8768 6.11801C16.3512 6.11801 15.8896 6.24585 15.4918 6.50153C15.0941 6.75248 14.784 7.08392 14.5614 7.49585C14.3436 7.90305 14.2324 8.35049 14.2276 8.83818V10.351C14.2276 10.9854 14.3436 11.5299 14.5756 11.9845C14.8076 12.4343 15.132 12.7799 15.5487 13.0214C15.9653 13.2582 16.453 13.3765 17.0117 13.3765C17.3858 13.3765 17.7243 13.3244 18.0273 13.2203C18.3304 13.1114 18.5932 12.9528 18.8157 12.7444C19.0382 12.5361 19.2063 12.278 19.32 11.9703L21.7205 12.2402C21.569 12.8746 21.2802 13.4286 20.854 13.9021C20.4326 14.3708 19.8929 14.7354 19.2347 14.9958C18.5766 15.2515 17.8237 15.3794 16.9762 15.3794Z" fill="white"/>
<path d="M28.7607 15.3794C27.6716 15.3794 26.7365 15.1403 25.9553 14.662C25.1787 14.1838 24.5798 13.5233 24.1584 12.6805C23.7417 11.833 23.5334 10.8576 23.5334 9.75437C23.5334 8.64642 23.7464 7.66867 24.1726 6.82113C24.5987 5.96886 25.2 5.30598 25.9766 4.8325C26.7578 4.35428 27.6811 4.11517 28.7464 4.11517C29.6319 4.11517 30.4155 4.27852 31.0973 4.60522C31.7839 4.92719 32.3307 5.38411 32.7379 5.97596C33.1451 6.56308 33.3771 7.24964 33.4339 8.03562H30.9766C30.8771 7.51005 30.6404 7.07208 30.2663 6.7217C29.897 6.36659 29.4022 6.18903 28.782 6.18903C28.2564 6.18903 27.7947 6.33108 27.397 6.61517C26.9993 6.89452 26.6892 7.29699 26.4666 7.82255C26.2488 8.34812 26.1399 8.97786 26.1399 9.71176C26.1399 10.4551 26.2488 11.0943 26.4666 11.6294C26.6844 12.1597 26.9898 12.5692 27.3828 12.8581C27.7805 13.1422 28.2469 13.2842 28.782 13.2842C29.1607 13.2842 29.4993 13.2132 29.7976 13.0711C30.1006 12.9244 30.3539 12.7137 30.5575 12.439C30.7611 12.1644 30.9008 11.8306 30.9766 11.4376H33.4339C33.3724 12.2094 33.1451 12.8936 32.7521 13.4902C32.3591 14.082 31.8241 14.546 31.147 14.8822C30.4699 15.2137 29.6745 15.3794 28.7607 15.3794Z" fill="white"/>
<path d="M38.1161 8.77426V15.1663H35.5451V0.62085H38.0593V6.11091H38.1871C38.4428 5.49538 38.8382 5.01005 39.3732 4.65494C39.913 4.29509 40.5996 4.11517 41.4329 4.11517C42.1905 4.11517 42.851 4.27379 43.4144 4.59102C43.9779 4.90825 44.4135 5.37227 44.7212 5.98307C45.0337 6.59386 45.19 7.3396 45.19 8.22028V15.1663H42.619V8.61801C42.619 7.88411 42.4296 7.31356 42.0508 6.90636C41.6767 6.49443 41.1512 6.28846 40.4741 6.28846C40.0195 6.28846 39.6123 6.3879 39.2525 6.58676C38.8974 6.78089 38.618 7.06261 38.4144 7.43193C38.2156 7.80125 38.1161 8.24869 38.1161 8.77426Z" fill="white"/>
<path d="M47.9244 15.1663V0.62085H53.3789C54.4963 0.62085 55.4338 0.829183 56.1914 1.24585C56.9537 1.66252 57.529 2.23543 57.9173 2.9646C58.3103 3.68903 58.5067 4.51289 58.5067 5.43619C58.5067 6.36896 58.3103 7.19755 57.9173 7.92199C57.5243 8.64642 56.9442 9.21697 56.1772 9.63363C55.4102 10.0456 54.4656 10.2515 53.3434 10.2515H49.7283V8.08534H52.9883C53.6417 8.08534 54.1767 7.9717 54.5934 7.74443C55.0101 7.51716 55.3178 7.20466 55.5167 6.80693C55.7203 6.4092 55.8221 5.95229 55.8221 5.43619C55.8221 4.92009 55.7203 4.46555 55.5167 4.07255C55.3178 3.67956 55.0077 3.37416 54.5863 3.15636C54.1696 2.93382 53.6322 2.82255 52.9741 2.82255H50.5593V15.1663H47.9244Z" fill="white"/>
<path d="M65.2841 15.3794C64.2188 15.3794 63.2955 15.145 62.5142 14.6762C61.733 14.2075 61.1269 13.5517 60.696 12.7089C60.2699 11.8661 60.0568 10.8813 60.0568 9.75437C60.0568 8.62748 60.2699 7.64026 60.696 6.79272C61.1269 5.94519 61.733 5.28704 62.5142 4.81829C63.2955 4.34954 64.2188 4.11517 65.2841 4.11517C66.3494 4.11517 67.2727 4.34954 68.054 4.81829C68.8352 5.28704 69.4389 5.94519 69.8651 6.79272C70.2959 7.64026 70.5114 8.62748 70.5114 9.75437C70.5114 10.8813 70.2959 11.8661 69.8651 12.7089C69.4389 13.5517 68.8352 14.2075 68.054 14.6762C67.2727 15.145 66.3494 15.3794 65.2841 15.3794ZM65.2983 13.3197C65.8759 13.3197 66.3589 13.1611 66.7472 12.8439C67.1354 12.5219 67.4242 12.091 67.6136 11.5512C67.8078 11.0115 67.9048 10.4101 67.9048 9.74727C67.9048 9.07966 67.8078 8.47596 67.6136 7.93619C67.4242 7.39168 67.1354 6.95844 66.7472 6.63647C66.3589 6.31451 65.8759 6.15352 65.2983 6.15352C64.7064 6.15352 64.214 6.31451 63.821 6.63647C63.4328 6.95844 63.1416 7.39168 62.9474 7.93619C62.7581 8.47596 62.6634 9.07966 62.6634 9.74727C62.6634 10.4101 62.7581 11.0115 62.9474 11.5512C63.1416 12.091 63.4328 12.5219 63.821 12.8439C64.214 13.1611 64.7064 13.3197 65.2983 13.3197Z" fill="white"/>
<path d="M81.3157 7.14074L78.9719 7.39642C78.9057 7.15968 78.7896 6.93714 78.6239 6.7288C78.4629 6.52047 78.2451 6.35238 77.9705 6.22454C77.6959 6.0967 77.3597 6.03278 76.962 6.03278C76.427 6.03278 75.9772 6.14879 75.6126 6.38079C75.2527 6.6128 75.0752 6.91346 75.0799 7.28278C75.0752 7.60002 75.1912 7.85807 75.4279 8.05693C75.6694 8.25579 76.0671 8.41915 76.6211 8.54699L78.4819 8.94471C79.5141 9.16725 80.2811 9.52 80.783 10.003C81.2897 10.4859 81.5453 11.118 81.5501 11.8993C81.5453 12.5858 81.3441 13.1919 80.9464 13.7174C80.5534 14.2383 80.0065 14.6455 79.3058 14.939C78.605 15.2326 77.8001 15.3794 76.891 15.3794C75.5558 15.3794 74.4809 15.1 73.6665 14.5413C72.8522 13.9779 72.3668 13.1942 72.2106 12.1905L74.7177 11.949C74.8313 12.4414 75.0728 12.8131 75.4421 13.064C75.8114 13.315 76.292 13.4405 76.8839 13.4405C77.4947 13.4405 77.9847 13.315 78.354 13.064C78.7281 12.8131 78.9151 12.503 78.9151 12.1336C78.9151 11.8211 78.7944 11.5631 78.5529 11.3595C78.3162 11.1559 77.9468 10.9996 77.445 10.8907L75.5842 10.5001C74.5378 10.2823 73.7636 9.91536 73.2617 9.39926C72.7598 8.87843 72.5112 8.22028 72.516 7.42483C72.5112 6.75248 72.6935 6.17009 73.0629 5.67767C73.4369 5.18051 73.9554 4.79699 74.6183 4.5271C75.2859 4.25248 76.0553 4.11517 76.9265 4.11517C78.2049 4.11517 79.2111 4.38742 79.945 4.93193C80.6836 5.47644 81.1405 6.21271 81.3157 7.14074Z" fill="white"/>
<path d="M89.1175 4.25721V6.24585H82.8462V4.25721H89.1175ZM84.3945 1.64358H86.9656V11.8851C86.9656 12.2307 87.0176 12.4959 87.1218 12.6805C87.2307 12.8604 87.3728 12.9835 87.5479 13.0498C87.7231 13.1161 87.9173 13.1493 88.1303 13.1493C88.2913 13.1493 88.4381 13.1374 88.5707 13.1137C88.708 13.0901 88.8121 13.0688 88.8832 13.0498L89.3164 15.0598C89.1791 15.1071 88.9826 15.1592 88.7269 15.216C88.476 15.2728 88.1682 15.306 87.8036 15.3155C87.1597 15.3344 86.5797 15.2373 86.0636 15.0243C85.5475 14.8065 85.1379 14.4703 84.8349 14.0157C84.5366 13.5612 84.3898 12.993 84.3945 12.3112V1.64358Z" fill="white"/>
<path d="M95.9801 15.3794C94.8864 15.3794 93.9418 15.1521 93.1463 14.6976C92.3556 14.2383 91.7472 13.5896 91.321 12.7515C90.8949 11.9087 90.6818 10.9168 90.6818 9.77568C90.6818 8.65352 90.8949 7.66867 91.321 6.82113C91.7519 5.96886 92.3532 5.30598 93.125 4.8325C93.8968 4.35428 94.8035 4.11517 95.8452 4.11517C96.5175 4.11517 97.152 4.22407 97.7486 4.44187C98.3499 4.65494 98.8802 4.98638 99.3395 5.43619C99.8035 5.886 100.168 6.45892 100.433 7.15494C100.698 7.84623 100.831 8.67009 100.831 9.62653V10.4149H91.8892V8.68193H98.3665C98.3617 8.18951 98.2552 7.75153 98.0469 7.36801C97.8385 6.97975 97.5473 6.67435 97.1733 6.45182C96.804 6.22928 96.3731 6.11801 95.8807 6.11801C95.3551 6.11801 94.8935 6.24585 94.4957 6.50153C94.098 6.75248 93.7879 7.08392 93.5653 7.49585C93.3475 7.90305 93.2363 8.35049 93.2315 8.83818V10.351C93.2315 10.9854 93.3475 11.5299 93.5795 11.9845C93.8116 12.4343 94.1359 12.7799 94.5526 13.0214C94.9692 13.2582 95.4569 13.3765 96.0156 13.3765C96.3897 13.3765 96.7282 13.3244 97.0312 13.2203C97.3343 13.1114 97.5971 12.9528 97.8196 12.7444C98.0421 12.5361 98.2102 12.278 98.3239 11.9703L100.724 12.2402C100.573 12.8746 100.284 13.4286 99.858 13.9021C99.4366 14.3708 98.8968 14.7354 98.2386 14.9958C97.5805 15.2515 96.8276 15.3794 95.9801 15.3794Z" fill="white"/>
<path d="M103.006 15.1663V4.25721H105.499V6.0754H105.613C105.811 5.44566 106.152 4.96034 106.635 4.61943C107.123 4.27379 107.679 4.10096 108.304 4.10096C108.446 4.10096 108.605 4.10807 108.78 4.12227C108.96 4.13174 109.109 4.14831 109.228 4.17199V6.53704C109.119 6.49916 108.946 6.46602 108.709 6.43761C108.477 6.40447 108.252 6.3879 108.034 6.3879C107.566 6.3879 107.144 6.48969 106.77 6.69329C106.401 6.89216 106.11 7.16915 105.897 7.52426C105.684 7.87937 105.577 8.28894 105.577 8.75295V15.1663H103.006Z" fill="white"/>
<path d="M119.558 7.14074L117.214 7.39642C117.148 7.15968 117.032 6.93714 116.866 6.7288C116.705 6.52047 116.487 6.35238 116.213 6.22454C115.938 6.0967 115.602 6.03278 115.204 6.03278C114.669 6.03278 114.219 6.14879 113.855 6.38079C113.495 6.6128 113.317 6.91346 113.322 7.28278C113.317 7.60002 113.433 7.85807 113.67 8.05693C113.912 8.25579 114.309 8.41915 114.863 8.54699L116.724 8.94471C117.756 9.16725 118.523 9.52 119.025 10.003C119.532 10.4859 119.788 11.118 119.792 11.8993C119.788 12.5858 119.586 13.1919 119.189 13.7174C118.796 14.2383 118.249 14.6455 117.548 14.939C116.847 15.2326 116.042 15.3794 115.133 15.3794C113.798 15.3794 112.723 15.1 111.909 14.5413C111.094 13.9779 110.609 13.1942 110.453 12.1905L112.96 11.949C113.074 12.4414 113.315 12.8131 113.684 13.064C114.054 13.315 114.534 13.4405 115.126 13.4405C115.737 13.4405 116.227 13.315 116.596 13.064C116.97 12.8131 117.157 12.503 117.157 12.1336C117.157 11.8211 117.037 11.5631 116.795 11.3595C116.558 11.1559 116.189 10.9996 115.687 10.8907L113.826 10.5001C112.78 10.2823 112.006 9.91536 111.504 9.39926C111.002 8.87843 110.753 8.22028 110.758 7.42483C110.753 6.75248 110.936 6.17009 111.305 5.67767C111.679 5.18051 112.198 4.79699 112.86 4.5271C113.528 4.25248 114.297 4.11517 115.169 4.11517C116.447 4.11517 117.453 4.38742 118.187 4.93193C118.926 5.47644 119.383 6.21271 119.558 7.14074Z" fill="white"/>
</svg>
